<?xml version="1.0" encoding="utf-8"?>
<!-- Generator: Adobe Illustrator 21.0.0, SVG Export Plug-In . SVG Version: 6.00 Build 0)  -->
<svg version="1.1" id="Layer_1" xmlns="http://www.w3.org/2000/svg" xmlns:xlink="http://www.w3.org/1999/xlink" x="0px" y="0px"
	 viewBox="0 0 750 333.4" style="enable-background:new 0 0 750 333.4;" xml:space="preserve">
<style type="text/css">
	.st0{fill:#25A65C;}
</style>
<g>
	<path class="st0" d="M97,71.8c-0.1,0-0.2,0.1-0.3,0.1c-0.7,0.5-1.2,1.6,0,2.2c1,0.5,2.4,2.3,3.3,3.8c-1.9,2.5-2,6.4,1.5,10.9
		c4.9,6.5-0.7,12.9-5.2,16.1c-4.3,2.9-10.8,2.1-15.4,0.7c5.3,7.3,15.4,9.2,23,4.1c4-2.7,6.4-6.8,7.1-11.1c2.8,3.7,15.2,3,20.2-0.3
		c5.1-3.5,9.2-7.2,8.5-12c-0.2,0.2-0.4,0.3-0.6,0.5c-7.4,7.5-15.7,9.2-19.5,6.6c0,0,0,0,0.1,0c5.6-1.6,19.2-9.4,11.2-16.5
		c-1.2,6.6-13.7,12.7-18.1,6.2c-3-4.4-7.1-7-10.2-6.6l0,0c-1.5-2.6-4.1-3.9-4.8-4.5C97.6,71.7,97.3,71.6,97,71.8L97,71.8z"/>
	<path class="st0" d="M147.8,253.9c0,0,0,0.1,0.1,0.1c3.3,8.7,2.7,17.5-4.6,24.1c-7.3,6.6-24.8-1.6-21.8-5.6c2.4-3.2,5.6-6.5,9-9.5
		c-0.7-0.7-1.5-1.5-2.3-2.3c-1.2,1.1-2.6,2.1-4,3c-2.4,1.5-5.1,2.6-7.8,2.8c-1.8,0.1-3.6-0.5-4.6-1.8c-0.2-0.2,0.1-0.6,0.4-0.7
		c0.3-0.2,0.6,0,0.9,0c4.6,0,9.2-2.3,12.8-5.5c-0.6-0.6-1.3-1.3-1.9-2c-0.4-0.4-0.8-0.8-1.2-1.2c-1,0.9-2,1.6-3,2.3
		c-1.8,1.1-3.9,2-5.8,2.1c-1.4,0.1-2.7-0.4-3.4-1.4c-0.1-0.2,0.1-0.4,0.3-0.5c0.2-0.1,0.5,0,0.7,0c2.9-0.6,6.3-2.3,9.2-4.6
		c-1.4-1.3-2.4-2.4-3.3-3.2c-0.5,0.5-1,0.9-1.5,1.3c-1.3,1-2.8,1.8-4.4,2.1c-1.1,0.2-2.1,0-2.8-0.7c-0.1-0.1,0-0.3,0.2-0.4
		c0.2-0.1,0.4,0,0.5-0.1c1.8-0.9,4-2.4,5.9-4.2c-1-1-3.7-4.1-4.5-5.1c-1.3,0.2-11.4,3.5-16-1.7c7.6,0,15.3-7.5,19-17.7
		c5.4,6.4,0.3,15.7-1.1,17.3c-0.4,0.4,1.4,2.6,4.2,5.6c1.9-2.1,3.3-4.5,3.2-6.7c-0.1-0.1-0.1-0.7,0.1-0.5c0.5,0.6,1,1.2,1.1,2.1
		c0.3,1.2-0.1,2.6-0.6,3.9c-0.5,1.1-1.2,2.2-2,3.2c1.1,1.1,2.2,2.2,3.4,3.4c2.7-2.6,4.7-5.8,4.7-8.9c0-0.2,0-1,0.3-0.7
		c0.6,0.8,1.1,1.8,1.1,2.9c0.1,1.7-0.5,3.5-1.4,5.1c-0.7,1.3-1.6,2.5-2.6,3.7c1.1,1,2.2,2.1,3.2,3.1c1.7-1.8,3.2-3.9,4.1-5.9
		c1.3-2.2,2.1-4.6,2.1-6.9c-0.1-0.2,0-1.3,0.4-0.9c0.8,1.1,1.4,2.4,1.5,3.9c0.2,2.2-0.6,4.6-1.8,6.8c-1.1,1.9-2.4,3.7-3.9,5.3
		c0.8,0.8,1.6,1.5,2.4,2.3C139.3,255.4,146.4,251.4,147.8,253.9L147.8,253.9z M146.1,262.4c-1.1-1.8-3.5-2.5-5.3-1.4
		c-1.8,1.1-2.4,3.5-1.3,5.3c1.1,1.8,3.5,2.5,5.3,1.4C146.6,266.7,147.2,264.3,146.1,262.4z"/>
	<g>
		<path class="st0" d="M266.1,231c-0.8-1.3-1.8-2.6-2.7-3.9l-6.5-9h-8.4l-6.5,9.1c-0.4,0.6-0.9,1.2-1.4,1.9
			c-0.4,0.5-0.7,1.1-1.1,1.6c-1.4,2.3-2.3,5.1-2.3,8c0,0,0,0,0,0c0,0.1,0,0.3,0,0.4c0,0.1,0,0.1,0,0.2c0,0.1,0,0.2,0,0.3
			c0,0.1,0,0.1,0,0.2c0,0.1,0,0.2,0,0.3c0,0.1,0,0.1,0,0.2c0,0.1,0,0.2,0,0.3c0,0,0,0.1,0,0.1c0,0.1,0,0.3,0.1,0.4c0,0,0,0,0,0
			c0,0.1,0,0.3,0.1,0.4c0,0,0,0.1,0,0.1c0,0.1,0,0.2,0.1,0.3c0,0,0,0.1,0,0.1c0,0.1,0,0.2,0.1,0.3c0,0,0,0.1,0,0.1
			c0,0.1,0.1,0.2,0.1,0.3c0,0,0,0.1,0,0.1c0.1,0.3,0.2,0.6,0.3,0.8c0,0,0,0,0,0.1c0,0.1,0.1,0.2,0.1,0.3c0,0,0,0.1,0,0.1
			c0,0.1,0.1,0.2,0.1,0.3c0,0,0,0,0,0.1c0.2,0.4,0.4,0.8,0.6,1.2c0,0,0,0,0,0c0.1,0.1,0.1,0.3,0.2,0.4c0,0,0,0,0,0
			c0.1,0.1,0.1,0.2,0.2,0.4c0,0,0,0,0,0c1.1,1.8,2.5,3.3,4.2,4.6c0,0,0,0,0,0l0,0c2.5,1.9,5.7,3,9,3c8.5,0,15.4-6.9,15.4-15.4
			C268.2,235.9,267.4,233.3,266.1,231z"/>
		<path class="st0" d="M257.4,215.4c-0.1,0-0.1,0-0.2,0H249c-0.5,0-0.9,0.4-0.9,0.9c0,0.5,0.4,0.9,0.9,0.9h8.2
			c0.5,0,0.9-0.4,0.9-0.9c0-0.3-0.1-0.5-0.3-0.7c4.6-0.3,3.3,3.8,7.9,3.3c0.1-0.5,0.1-1.4,0.2-1.9c-3.7,0.5-4.7-3.4-8.2-1.5
			c0,0,0,0,0,0c3.2-3,4.9,0.7,7.9-2.6c-0.3-0.5-0.9-1.1-1.2-1.6C262,214.2,258.8,212.1,257.4,215.4z"/>
		<polygon class="st0" points="255.5,214.5 259.6,207.3 259.6,207.3 255.3,207.5 255.3,207.5 253,211.5 255,204.6 255,204.6 
			250.6,206.7 250.6,206.7 250.8,211.5 248.2,205.7 248.2,205.7 245.3,208.2 248.6,214.5 		"/>
	</g>
	<path class="st0" d="M310.2,153.9V76.6c0-0.7,0.4-1.1,1.1-1.1h35.9c16,0,29.5,12.5,29.5,28.7c0,9.4-3.8,18-13.3,24.1
		c-0.6,0.3-0.7,1-0.3,1.6l13,23.9c0.4,0.8,0,1.3-0.8,1.3h-22.1c-0.6,0-1.1-0.2-1.3-0.8l-10.6-20.7c-0.2-0.6-0.8-0.8-1.3-0.8H334
		c-0.7,0-1.1,0.4-1.1,1.1v20c0,0.7-0.4,1.1-1.1,1.1h-20.4C310.7,155,310.2,154.6,310.2,153.9z M343.7,113c6.8,0,10.3-4.5,10.3-8.8
		c0-4.7-4.4-8.7-9.5-8.7H334c-0.7,0-1.1,0.4-1.1,1.1v15.3c0,0.7,0.4,1.1,1.1,1.1H343.7z"/>
	<path class="st0" d="M424.4,75.4h9c0.6,0,1.1,0.2,1.3,0.8l36.4,77.5c0.3,0.8,0,1.3-0.8,1.3h-19.5c-0.6,0-1.1-0.2-1.3-0.8l-4.2-8.4
		c-0.2-0.6-0.7-0.8-1.2-0.8h-30.4c-0.6,0-1.1,0.2-1.3,0.8l-4.2,8.4c-0.2,0.6-0.7,0.8-1.2,0.8h-19.4c-0.8,0-1.1-0.6-0.8-1.3
		l36.4-77.5C423.3,75.7,423.9,75.4,424.4,75.4z M423.1,125.1h11.6c0.8,0,1.1-0.6,0.8-1.3l-5.7-12.2c-0.3-0.8-1.2-0.8-1.6,0
		l-5.9,12.2C422,124.6,422.3,125.1,423.1,125.1z"/>
	<path class="st0" d="M479.7,130.8c0-0.8-0.2-1.6,1.2-1.8l19-2.3c0.9-0.1,1.7-0.2,1.7,0.7c0,6.7,6.8,8,10.8,8c5.1,0,7.8-1.2,7.8-4.5
		c0-5-10.2-5-22-9c-11.3-3.9-17-11.1-17-23.1c0-16.3,13.2-23.7,28.7-23.7c15.1,0,29,6.9,28.9,23.9c0,0.6-0.6,1-1.1,1l-19,2.5
		c-0.8,0.1-1.2-0.2-1.2-1.1c0.1-4.7-4.2-6.3-8.3-6.3c-1.8,0-5.2,0.3-5.2,4.2c0,3.5,5,4.2,12.4,6.1c22.2,6,26.6,16.3,26.6,26.8
		c0,14.7-12.4,23.1-30.4,23.1C497.2,155.4,479.7,150.1,479.7,130.8z"/>
	<path class="st0" d="M610,75.4h20.5c0.7,0,1.1,0.4,1.1,1.1v77.4c0,0.7-0.4,1.1-1.1,1.1H610c-0.7,0-1.1-0.4-1.1-1.1v-25.5
		c0-0.7-0.4-1.1-1.1-1.1h-27.2c-0.7,0-1.1,0.4-1.1,1.1v25.5c0,0.7-0.4,1.1-1.1,1.1h-20.4c-0.7,0-1.1-0.4-1.1-1.1V76.6
		c0-0.7,0.4-1.1,1.1-1.1h20.4c0.7,0,1.1,0.4,1.1,1.1v29.7c0,0.7,0.4,1.1,1.1,1.1h27.2c0.7,0,1.1-0.4,1.1-1.1V76.6
		C608.8,75.9,609.3,75.4,610,75.4z"/>
	<path class="st0" d="M310.2,260.2v-77.4c0-0.7,0.4-1.1,1.1-1.1h35.9c16,0,29.5,12.5,29.5,28.7c0,9.4-3.8,18-13.3,24.1
		c-0.6,0.3-0.7,1-0.3,1.6l13,23.9c0.4,0.8,0,1.3-0.8,1.3h-22.1c-0.6,0-1.1-0.2-1.3-0.8l-10.6-20.7c-0.2-0.6-0.8-0.8-1.3-0.8H334
		c-0.7,0-1.1,0.4-1.1,1.1v20c0,0.7-0.4,1.1-1.1,1.1h-20.4C310.6,261.3,310.2,260.8,310.2,260.2z M343.7,219.2
		c6.8,0,10.3-4.5,10.3-8.8c0-4.7-4.4-8.7-9.5-8.7H334c-0.7,0-1.1,0.4-1.1,1.1v15.3c0,0.7,0.4,1.1,1.1,1.1H343.7z"/>
	<path class="st0" d="M424.4,181.7h9c0.6,0,1.1,0.2,1.3,0.8l36.4,77.5c0.3,0.8,0,1.3-0.8,1.3h-19.5c-0.6,0-1.1-0.2-1.3-0.8l-4.2-8.4
		c-0.2-0.6-0.7-0.8-1.2-0.8h-30.4c-0.6,0-1.1,0.2-1.3,0.8l-4.2,8.4c-0.2,0.6-0.7,0.8-1.2,0.8h-19.4c-0.8,0-1.1-0.6-0.8-1.3
		l36.4-77.5C423.3,181.9,423.8,181.7,424.4,181.7z M423,231.4h11.6c0.8,0,1.1-0.6,0.8-1.3l-5.7-12.2c-0.3-0.8-1.2-0.8-1.6,0
		l-5.9,12.2C421.9,230.8,422.3,231.4,423,231.4z"/>
	<path class="st0" d="M515.6,261.3h-29c-0.7,0-1.1-0.4-1.1-1.1v-77.4c0-0.7,0.4-1.1,1.1-1.1h29c23,0,41.4,17.1,41.4,39.9
		C557,244.2,538.6,261.3,515.6,261.3z M516.9,201.7h-7.7c-0.7,0-1.1,0.4-1.1,1.1v37.5c0,0.7,0.4,1.1,1.1,1.1h7.7
		c6.5,0,17.3-5.9,17.3-19.9C534.2,207.6,523.4,201.7,516.9,201.7z"/>
	<path class="st0" d="M599.5,181.7h9c0.6,0,1.1,0.2,1.3,0.8l36.4,77.5c0.3,0.8,0,1.3-0.8,1.3H626c-0.6,0-1.1-0.2-1.3-0.8l-4.2-8.4
		c-0.2-0.6-0.7-0.8-1.2-0.8h-30.4c-0.6,0-1.1,0.2-1.3,0.8l-4.2,8.4c-0.2,0.6-0.7,0.8-1.2,0.8h-19.4c-0.8,0-1.1-0.6-0.8-1.3
		l36.4-77.5C598.4,181.9,599,181.7,599.5,181.7z M598.2,231.4h11.6c0.8,0,1.1-0.6,0.8-1.3l-5.7-12.2c-0.3-0.8-1.2-0.8-1.6,0
		l-5.9,12.2C597.1,230.8,597.4,231.4,598.2,231.4z"/>
	<path class="st0" d="M658.3,260.2v-77.4c0-0.7,0.4-1.1,1.1-1.1h35.9c16,0,29.5,12.5,29.5,28.7c0,9.4-3.8,18-13.3,24.1
		c-0.6,0.3-0.7,1-0.3,1.6l13,23.9c0.4,0.8,0,1.3-0.8,1.3h-22.1c-0.6,0-1.1-0.2-1.3-0.8l-10.6-20.7c-0.2-0.6-0.8-0.8-1.3-0.8h-5.9
		c-0.7,0-1.1,0.4-1.1,1.1v20c0,0.7-0.4,1.1-1.1,1.1h-20.4C658.8,261.3,658.3,260.8,658.3,260.2z M691.8,219.2
		c6.8,0,10.3-4.5,10.3-8.8c0-4.7-4.4-8.7-9.5-8.7h-10.5c-0.7,0-1.1,0.4-1.1,1.1v15.3c0,0.7,0.4,1.1,1.1,1.1H691.8z"/>
	<path class="st0" d="M250.8,163.4c-0.8-17.1-7.3-32.8-17.7-45l8.9-9v-5h-11.2c-0.5,0-1,0-1.5-0.1l-4.9,5.2c-10.7-9-23-15-37.3-16.9
		c-1.8-0.3-3.6-0.5-5.4-0.6V38.4c28,0.9,53.5,11.4,73.9,28.1h31C259.2,36,219.4,16.7,175.1,16.7c-82.7,0-150,67.3-150,150
		s67.3,150,150,150c52.9,0,99.4-27.5,126.2-68.9v-54.9C290.5,250.1,241.8,293,181.8,295v-53.2c8.6-0.7,16.7-2.8,24.2-6.1
		c13.1-5.6,24.2-14.9,32-26.7c0.1-0.1,0.1-0.2,0.2-0.3c0.3-0.5,0.7-1,1-1.6c6.3-9.9,10.4-21.5,11.4-33.8h74.5v-10H250.8z M171.8,295
		c-66.7-2.2-122.7-55-125-121.7h53.6c0.8,13.8,5.9,26.6,14,37.2c13,18.1,33.7,30.3,57.4,31.5V295z M171.8,222
		c-26.6-1.8-47.9-22.4-51-48.6h51V222z M171.8,163.4h-51.3c1.7-27.6,23.7-49.7,51.3-51.6V163.4z M171.8,91.7
		c-37.4,1.9-67.7,31.1-71.1,68.1c-0.1,1.2-0.2,2.4-0.3,3.6H46.8c2.2-66.7,58.3-122.7,125-125V91.7z M230.7,163.4H206v0h-17.4
		l30.5-30.5C225.8,141.4,230,151.9,230.7,163.4z M181.8,112c10.9,1.2,20.9,5.6,29,12.3l-29,29V112z M181.8,221.8v-48.4H206l0,0h24.5
		C227.5,198.8,207.2,218.9,181.8,221.8z"/>
	<path class="st0" d="M293.7,75.4h-62.9c-0.7,0-1.1,0.4-1.1,1.1v17.8c0,0.7,0.4,1.1,1.1,1.1h19c0.7,0,1.1,0.4,1.1,1.1v36.3
		c3.2,7,5.4,14.4,6.5,22.2h15.2c0.7,0,1.1-0.4,1.1-1.1V96.5c0-0.7,0.4-1.1,1.1-1.1h18.9c0.7,0,1.1-0.4,1.1-1.1V76.6
		C294.8,75.9,294.4,75.4,293.7,75.4z"/>
</g>
</svg>
